<svg xmlns="http://www.w3.org/2000/svg" viewBox="0 0 200 200">
  <circle cx="100" cy="100" r="98" fill="#4CAF50" stroke="#2E7D32" stroke-width="2"/>
  <circle cx="100" cy="100" r="72" fill="white" stroke="#333" stroke-width="1.5"/>
  <!-- Coconut palm -->
  <path d="M100 145 Q95 120 92 100 Q90 85 95 70" stroke="#5D4037" stroke-width="4" fill="none" stroke-linecap="round"/>
  <!-- Fronds -->
  <path d="M95 70 Q80 50 60 45" stroke="#2E7D32" stroke-width="2.5" fill="none" stroke-linecap="round"/>
  <path d="M95 70 Q85 45 75 35" stroke="#2E7D32" stroke-width="2.5" fill="none" stroke-linecap="round"/>
  <path d="M95 70 Q95 40 95 30" stroke="#2E7D32" stroke-width="2.5" fill="none" stroke-linecap="round"/>
  <path d="M95 70 Q105 45 115 35" stroke="#2E7D32" stroke-width="2.5" fill="none" stroke-linecap="round"/>
  <path d="M95 70 Q110 50 130 45" stroke="#2E7D32" stroke-width="2.5" fill="none" stroke-linecap="round"/>
  <path d="M95 70 Q115 55 135 55" stroke="#2E7D32" stroke-width="2.5" fill="none" stroke-linecap="round"/>
  <path d="M95 70 Q80 55 60 55" stroke="#2E7D32" stroke-width="2.5" fill="none" stroke-linecap="round"/>
  <!-- Coconuts -->
  <circle cx="93" cy="72" r="3" fill="#8D6E63"/>
  <circle cx="99" cy="74" r="3" fill="#8D6E63"/>
  <circle cx="96" cy="68" r="3" fill="#8D6E63"/>
  <!-- Ground/sand -->
  <ellipse cx="100" cy="148" rx="40" ry="8" fill="#D7CCC8"/>
  <!-- Text around circle -->
  <defs>
    <path id="topArc" d="M30,100 a70,70 0 0,1 140,0"/>
    <path id="bottomArc" d="M170,105 a70,70 0 0,1 -140,0"/>
  </defs>
  <text font-family="Arial Black, sans-serif" font-size="11" font-weight="900" fill="white" letter-spacing="2">
    <textPath href="#topArc" startOffset="50%" text-anchor="middle">COCONUT RESEARCH INSTITUTE</textPath>
  </text>
  <text font-family="Arial, sans-serif" font-size="8.5" font-weight="700" fill="white" letter-spacing="1">
    <textPath href="#bottomArc" startOffset="50%" text-anchor="middle">පොල් පර්යේෂණ ආයතනය · தென்னை ஆராய்ச்சி</textPath>
  </text>
</svg>
